PathFileType	4	(X/Y/Z)	/Users/niels/Desktop/University/Third Semester/Perception and Action/Exam/Gymnastics Motion Tracking/Code for Gym Tracking/Analyzed Data/Webcam_Backflip/id8_4_pure_Sports2D/id8_4_pure_Sports2D_px_person00.trc
DataRate	CameraRate	NumFrames	NumMarkers	Units	OrigDataRate	OrigDataStartFrame	OrigNumFrames
29.81132075471698	29.81132075471698	12	22	m	29.81132075471698	119	159
Frame#	Time	Hip			RHip			RKnee			RAnkle			RBigToe			RSmallToe			RHeel			LHip			LKnee			LAnkle			LBigToe			LSmallToe			LHeel			Neck			Head			Nose			RShoulder			RElbow			RWrist			LShoulder			LElbow			LWrist		
		X1	Y1	Z1	X2	Y2	Z2	X3	Y3	Z3	X4	Y4	Z4	X5	Y5	Z5	X6	Y6	Z6	X7	Y7	Z7	X8	Y8	Z8	X9	Y9	Z9	X10	Y10	Z10	X11	Y11	Z11	X12	Y12	Z12	X13	Y13	Z13	X14	Y14	Z14	X15	Y15	Z15	X16	Y16	Z16	X17	Y17	Z17	X18	Y18	Z18	X19	Y19	Z19	X20	Y20	Z20	X21	Y21	Z21	X22	Y22	Z22
119	3.991772151898734	1.0161849071229	-0.5790798409193882	0.0	1.001859776312685	-0.5787237435888999	0.0	0.9910865175008787	-0.6798030966610236	0.0	0.9347672019226392	-0.7579146965932131	0.0	0.9629293990257677	-0.7873670541298876	0.0	0.9521934541969961	-0.786257683099265	0.0	0.9232694595173598	-0.7683758823555573	0.0	1.03087921583348	-0.5780744848420922	0.0	1.0300871589391754	-0.6794840924654916	0.0	1.0335457180926184	-0.7745547833825779	0.0	1.0607148715664843	-0.7922558907598034	0.0	1.0634328916811855	-0.7891566437267732	0.0	1.0281616495344132	-0.7859074436639039	0.0	0.9989554088281087	-0.4465580803465162	0.0	1.0015592123796384	-0.38346110105781755	0.0	1.01977341773261	-0.41623941481817267	0.0	0.9773728560375411	-0.4695389243517849	0.0	0.9685056507834395	-0.5371583635687611	0.0	0.974516476792499	-0.596352425457827	0.0	1.0184787418388346	-0.46442055839256463	0.0	1.0192812172447956	-0.5291226224989789	0.0	1.0357372583492652	-0.5856362590852053	0.0
120	4.025316455696203	1.0170290915889557	-0.5749984258704214	0.0	1.0021755054109156	-0.5751784971567254	0.0	0.9917965979232585	-0.6770485333768081	0.0	0.9395469376476928	-0.7547240842562308	0.0	0.9646133960844298	-0.7850427524223944	0.0	0.9540360797885965	-0.7834103539928581	0.0	0.9285027634283982	-0.7650490107478538	0.0	1.0322209253079655	-0.5743055470072564	0.0	1.0311588952787902	-0.6765861490290549	0.0	1.0338493083157514	-0.7716863535138113	0.0	1.0608237031185295	-0.790486983344341	0.0	1.0639647182718752	-0.7873002690246145	0.0	1.0281927318639164	-0.7831792257297854	0.0	1.0000782147191183	-0.44346373130416206	0.0	1.0019397849587293	-0.3803133780585424	0.0	1.0197357528441975	-0.4125669902997445	0.0	0.9768030049336475	-0.46621823821033453	0.0	0.9634887487808835	-0.5330454409234721	0.0	0.9649912909825439	-0.5927384896175814	0.0	1.0212789393351738	-0.4606692913490321	0.0	1.01885315407541	-0.525026262777353	0.0	1.0330014881279816	-0.5828357093649265	0.0
121	4.058860759493671	1.0172878976296014	-0.5726578880656442	0.0	1.0017967186663017	-0.5732793515302753	0.0	0.9914674720510338	-0.6755949845026562	0.0	0.9447982387927588	-0.7536221482838535	0.0	0.9660250818014673	-0.784009678839437	0.0	0.955355967327285	-0.7819077089388401	0.0	0.9346072580317282	-0.7639141981011924	0.0	1.033059474680859	-0.5722238848277771	0.0	1.0318176338362148	-0.6751639285332115	0.0	1.0341108772925607	-0.7700944140465147	0.0	1.0604921397168559	-0.789891373198126	0.0	1.0640708224751811	-0.7866371689968928	0.0	1.0281932140225416	-0.7818812492010458	0.0	1.0009429968313213	-0.44179788667885156	0.0	1.0021102277913667	-0.3787133556228756	0.0	1.0194653005139518	-0.41043064512729155	0.0	0.9759494177293088	-0.46430341332435926	0.0	0.9589248862352315	-0.530011968559775	0.0	0.9570565218853556	-0.589680383954208	0.0	1.0238333902293566	-0.45859160076394884	0.0	1.018898257597327	-0.5223729901712517	0.0	1.032097100152663	-0.5804249548569188	0.0
122	4.092405063291139	1.017064055087151	-0.5723923998264866	0.0	1.000807649949138	-0.5732675357880598	0.0	0.990164056234764	-0.6755631167286102	0.0	0.9498508408015123	-0.7547414460080822	0.0	0.9669392220818807	-0.7843390407573341	0.0	0.9559744527584735	-0.7818573962992665	0.0	0.940772687722949	-0.7651109772786155	0.0	1.0334967883460764	-0.5720858416394171	0.0	1.0320537969816899	-0.6753806860652184	0.0	1.0342488858583254	-0.7699544163952555	0.0	1.0596020310117462	-0.7904861011978191	0.0	1.0636546979622516	-0.7871644996097477	0.0	1.0281690539000095	-0.7820993248387117	0.0	1.0015021612534374	-0.4417499004676783	0.0	1.0020828250516574	-0.3788112824929481	0.0	1.0190064042111222	-0.4100401130975646	0.0	0.9748970051915669	-0.464062255114906	0.0	0.9551622695051856	-0.5286887454903375	0.0	0.9510561655999715	-0.5881766718687503	0.0	1.0259668212603166	-0.45844759494638276	0.0	1.0196771690122677	-0.5215637184392785	0.0	1.0327803418376278	-0.5791566088486841	0.0
123	4.125949367088608	1.0164235448118117	-0.5740607725992103	0.0	0.9993020770367486	-0.5750281554913461	0.0	0.9880830146299056	-0.6768108977513779	0.0	0.9540190580031787	-0.7578385659972541	0.0	0.9672992068983145	-0.7859386239515118	0.0	0.9559734068856794	-0.7832166111512836	0.0	0.9461093703498014	-0.7683560777705074	0.0	1.0335994577355334	-0.5737688680557091	0.0	1.0319162578670955	-0.6770822051338865	0.0	1.0342173359195643	-0.7712185142502264	0.0	1.058354332516995	-0.7921410518264675	0.0	1.062856925939432	-0.7887207815193941	0.0	1.0281273208230446	-0.7836665376575054	0.0	1.0017461736605064	-0.44321437868229546	0.0	1.0018430658998854	-0.3804599774951593	0.0	1.0183995402819008	-0.41130763703804135	0.0	0.9737199878599021	-0.4654593011988702	0.0	0.9524236979707881	-0.5293630383139262	0.0	0.9470360450796328	-0.5888374033739613	0.0	1.0275925151065795	-0.460088425525604	0.0	1.0214832247499306	-0.5225375961164833	0.0	1.034984473341682	-0.57940631938178	0.0
124	4.159493670886076	1.015357062546738	-0.5771954001595639	0.0	0.9973242833564139	-0.5781711080426475	0.0	0.9854762480598821	-0.6789935772203228	0.0	0.9568529341958121	-0.7623015092437205	0.0	0.967191567956868	-0.788481014425958	0.0	0.9555493080864325	-0.7857145401443448	0.0	0.9499816801931793	-0.7729732124171267	0.0	1.0333400837089424	-0.5768688955251857	0.0	1.0314792568978068	-0.6798511214933021	0.0	1.0340238149427343	-0.7735976440906387	0.0	1.0570722964293713	-0.7945633004499729	0.0	1.0619259000796244	-0.7909982608949025	0.0	1.0280609617802987	-0.7861935518941063	0.0	1.0016808854731059	-0.4458328292298626	0.0	1.001352305600057	-0.3832610723898769	0.0	1.0176645063506573	-0.4138812255635613	0.0	0.9724395282432418	-0.46817971859757807	0.0	0.9507678892608771	-0.5318779314861037	0.0	0.9448840982590638	-0.5916254681154749	0.0	1.0287388245358045	-0.46304251992330514	0.0	1.024552301017349	-0.5248554883669617	0.0	1.0388554987140524	-0.5811128359112578	0.0
125	4.193037974683544	1.0137593818281485	-0.5811956535802171	0.0	0.9948586316981387	-0.5821832293949107	0.0	0.982608869347702	-0.6816537921759922	0.0	0.9582935822785607	-0.767249943901074	0.0	0.966798393420954	-0.791473705490634	0.0	0.9548910670968201	-0.7888561277201586	0.0	0.9522082751318055	-0.7780033391347774	0.0	1.032550402293745	-0.5808614855643865	0.0	1.0308101382301373	-0.6831132444631399	0.0	1.0337337251069438	-0.7766156261098337	0.0	1.05597847151062	-0.7973350180838678	0.0	1.0610527835912436	-0.7936114114368614	0.0	1.027966310101041	-0.789148555354856	0.0	1.0012939129880583	-0.44909203259953573	0.0	1.0005703483681878	-0.38668500915924875	0.0	1.016783111346775	-0.41723859576658967	0.0	0.9710134065463338	-0.47171440354000416	0.0	0.9501308239366436	-0.5356948130187786	0.0	0.9445217953979808	-0.5959163374317451	0.0	1.0294592275363175	-0.4666685087746108	0.0	1.0287568531276872	-0.5278930126354068	0.0	1.0444250575512763	-0.5838424747813199	0.0
126	4.226582278481012	1.0115342203724742	-0.5853733217534809	0.0	0.9919165732266563	-0.586481810212257	0.0	0.9797445679801572	-0.684293292477277	0.0	0.9586512832453091	-0.7717498329894527	0.0	0.9663367257553586	-0.7944237438367385	0.0	0.954131322095508	-0.792067066629724	0.0	0.9530823997331082	-0.7824596258215908	0.0	1.0310297193890592	-0.5851588546579171	0.0	1.0299340036316071	-0.6862531671055223	0.0	1.0334272659833263	-0.7797182610563146	0.0	1.055193041436192	-0.8000055998209071	0.0	1.0603393597402304	-0.7961669496069153	0.0	1.0278554835217393	-0.791992853433869	0.0	1.0005617923941406	-0.4524249162909349	0.0	0.999470521195016	-0.3901862629999121	0.0	1.01573306732039	-0.4207780086616696	0.0	0.9693787726524055	-0.4754507242498755	0.0	0.9503701342277586	-0.5400546441390928	0.0	0.9459348782162543	-0.600723009561337	0.0	1.0297689749544705	-0.4702737808004643	0.0	1.0334572586446915	-0.5310219241272883	0.0	1.0512650109237491	-0.586890631517886	0.0
127	4.260126582278481	1.0087604011742324	-0.5890167335225555	0.0	0.988650791242356	-0.5904268641685194	0.0	0.977098959694488	-0.686462241225494	0.0	0.9583914523118238	-0.775086941830221	0.0	0.965944678340969	-0.7968964247847029	0.0	0.953323691994489	-0.7948196805629462	0.0	0.9531529816564981	-0.7856533602357428	0.0	1.0287663190850722	-0.5891182237034696	0.0	1.0288418640406358	-0.6887296699562648	0.0	1.03314138028205	-0.7823722223400625	0.0	1.0547638493933804	-0.8021455538810303	0.0	1.0598149436313962	-0.7982727581435409	0.0	1.0277328572579254	-0.7942828911257075	0.0	0.9994771289516943	-0.4553016545544944	0.0	0.998057578085534	-0.3932496935953933	0.0	1.0145217828062283	-0.42391694099253635	0.0	0.967499908603882	-0.47876906728163215	0.0	0.951259835712151	-0.5441748930363395	0.0	0.9490729247813908	-0.6049710469761044	0.0	1.0296564958762402	-0.4732208606225781	0.0	1.037780897988622	-0.5337055312871869	0.0	1.0585333829594095	-0.5894044631967832	0.0
128	4.293670886075949	1.005699826407067	-0.5915801740838635	0.0	0.9853395029418383	-0.5934446813264608	0.0	0.9747629769548386	-0.6878702946990689	0.0	0.9578835312729888	-0.7769508168883197	0.0	0.9656012046532957	-0.7985160678331926	0.0	0.952448593028942	-0.7966786764305389	0.0	0.9529137320497886	-0.7873654554565609	0.0	1.025995436455517	-0.5921587167620734	0.0	1.0275464010218276	-0.690188072493772	0.0	1.0328719674641471	-0.7841343735245015	0.0	1.054640924008382	-0.8033802496500466	0.0	1.0594509669113525	-0.7995524695560465	0.0	1.0275894833637162	-0.7957067457200391	0.0	0.9980571219155275	-0.45729079672631767	0.0	0.996373348671439	-0.39541531523922313	0.0	1.013140965706626	-0.4261899281498804	0.0	0.9653682771039047	-0.48115337456680946	0.0	0.9524872577573439	-0.5474102674070882	0.0	0.9537369445927387	-0.6077458305993672	0.0	1.0291091845913745	-0.4750567094159149	0.0	1.041052531880501	-0.5355292431012737	0.0	1.0653104916737817	-0.5906112406232252	0.0
129	4.327215189873417	1.0026196512936756	-0.592810642985525	0.0	0.9822283030051354	-0.5951692699364363	0.0	0.972689650678356	-0.6883976661766479	0.0	0.9573048156032384	-0.7774322525725715	0.0	0.9652034893628755	-0.7990290179095905	0.0	0.9514743525669701	-0.7973588951281608	0.0	0.9526451889486165	-0.7877722486400319	0.0	1.023011913032339	-0.5938996486455103	0.0	1.0261062079916894	-0.6904973261894062	0.0	1.032609138340618	-0.7847092932016133	0.0	1.0547297100363355	-0.8034569116853028	0.0	1.059232294078236	-0.7997148509744133	0.0	1.0274174272960275	-0.7960769588391207	0.0	0.9963290828106586	-0.4580926890097342	0.0	0.99447749201638	-0.3963412433054714	0.0	1.0115229627034845	-0.4273027045444288	0.0	0.9629910829363354	-0.48227150856124007	0.0	0.953712441879673	-0.5493100499261041	0.0	0.9595321483613046	-0.6084369977096807	0.0	1.0281101133902841	-0.4755865166065487	0.0	1.0429474385218898	-0.5362189431207217	0.0	1.070816400569774	-0.5900580169009579	0.0
130	4.360759493670886	0.9996454929485284	-0.5926913064358623	0.0	0.9794019303139686	-0.5954409043230379	0.0	0.9707729650967429	-0.6879985831924136	0.0	0.9567064995208172	-0.7768454992246494	0.0	0.9647223015899449	-0.7983518466579523	0.0	0.9504341520409076	-0.7967825377051369	0.0	0.9524393712668028	-0.7872115900104971	0.0	1.0199974331595572	-0.5941601435576845	0.0	1.0246041644394812	-0.6896862140247805	0.0	1.0323572363149436	-0.7839896194293847	0.0	1.0550039909233728	-0.802304262451328	0.0	1.0592344074881694	-0.7986332904887179	0.0	1.0272094164580927	-0.7953124580077876	0.0	0.9943193242322497	-0.4575748137431506	0.0	0.992412800885079	-0.39587871199313035	0.0	1.009573202788098	-0.42713648450366937	0.0	0.9604148188233554	-0.48198981117436623	0.0	0.954622293967259	-0.5496301008682568	0.0	0.9659074695731962	-0.6067729530533782	0.0	1.0266480038571353	-0.4748313724807976	0.0	1.043388950303557	-0.5356321571781653	0.0	1.0744601338525004	-0.5876549926873779	0.0
